<?xml version="1.0" standalone="no"?>
<!DOCTYPE svg PUBLIC "-//W3C//DTD SVG 20010904//EN"
 "http://www.w3.org/TR/2001/REC-SVG-20010904/DTD/svg10.dtd">
<svg version="1.0" xmlns="http://www.w3.org/2000/svg"
 width="319.000000pt" height="301.000000pt" viewBox="0 0 319.000000 301.000000"
 preserveAspectRatio="xMidYMid meet">

<g transform="translate(0.000000,301.000000) scale(0.100000,-0.100000)"
fill="#000000" stroke="none">
<path d="M1092 2888 c-20 -20 -14 -99 14 -158 l25 -54 -32 -62 c-38 -75 -48
-165 -26 -235 l14 -45 -71 -37 c-181 -93 -321 -262 -391 -469 -51 -155 -70
-387 -40 -502 34 -131 124 -255 238 -331 59 -39 176 -84 220 -85 15 0 27 -4
27 -10 0 -5 -7 -10 -16 -10 -9 0 -14 -4 -12 -9 8 -21 324 -379 333 -377 5 1
19 -9 32 -23 12 -14 23 -21 23 -16 0 6 9 105 20 220 11 116 20 225 20 244 0
30 -2 33 -25 27 -45 -11 -29 26 30 68 66 48 105 95 151 184 78 155 83 326 13
480 -41 90 -90 153 -173 221 -69 56 -130 141 -113 157 3 4 27 1 51 -6 28 -8
80 -11 133 -8 106 5 191 41 274 115 143 129 185 300 110 445 l-30 58 26 50
c46 89 41 180 -11 180 -31 0 -89 -24 -149 -62 l-48 -30 -57 16 c-75 21 -209
21 -283 0 -55 -16 -59 -15 -86 4 -47 33 -131 72 -156 72 -13 0 -28 -5 -35 -12z
m468 -561 c0 -2 -8 -11 -18 -21 -18 -15 -20 -15 -37 4 -18 20 -18 20 18 20 21
0 37 -2 37 -3z m-340 -429 c48 -47 38 -131 -20 -175 -72 -55 -188 17 -176 110
11 96 127 134 196 65z m300 -233 c42 -21 60 -53 60 -103 0 -37 -6 -50 -34 -78
-27 -27 -42 -34 -72 -34 -115 0 -163 125 -78 199 39 35 78 40 124 16z m-660
-32 c77 -70 43 -186 -57 -200 -52 -7 -95 16 -117 61 -20 43 -20 59 0 102 32
67 120 86 174 37z m346 -70 c54 -35 56 -128 4 -175 -60 -55 -158 -26 -181 53
-11 37 -11 46 7 78 35 65 109 84 170 44z m-247 -267 c57 -30 70 -125 24 -176
-32 -36 -93 -49 -133 -28 -32 18 -70 75 -70 107 0 34 34 89 63 101 34 13 85
12 116 -4z m460 0 c52 -27 68 -112 30 -160 -63 -80 -169 -68 -198 22 -17 50
-8 86 29 123 33 33 91 39 139 15z m-80 -477 c-5 -68 -11 -128 -12 -133 -2 -5
-40 35 -85 88 -46 53 -89 96 -96 96 -8 0 -16 6 -19 14 -4 11 8 16 51 21 31 4
82 15 112 24 30 10 56 17 57 16 1 0 -2 -57 -8 -126z"/>
<path d="M2870 1453 c-80 -24 -148 -48 -151 -51 -13 -13 10 -52 30 -52 11 0
23 -9 26 -21 7 -21 16 -21 76 -3 13 3 23 -17 48 -98 67 -214 66 -213 89 -216
12 -2 22 -10 22 -17 0 -8 4 -16 10 -20 14 -9 60 6 60 19 0 7 -24 91 -54 187
-30 96 -52 177 -48 180 4 4 31 14 60 24 28 9 52 18 52 20 0 2 -4 15 -9 29 -7
17 -15 23 -28 20 -13 -4 -22 2 -28 20 l-10 25 -145 -46z"/>
<path d="M2540 1354 c0 -18 -40 -420 -45 -457 -5 -39 -5 -39 25 -32 27 6 30 4
30 -19 0 -30 -2 -29 38 -15 29 10 31 15 34 62 l3 52 69 22 70 23 21 -20 c12
-11 26 -20 32 -20 6 0 13 -7 17 -15 6 -16 38 -19 70 -6 16 6 -4 34 -140 198
-88 105 -162 191 -166 190 -3 -1 -18 9 -32 22 -14 14 -26 20 -26 15z m140
-264 c0 -4 -9 -10 -20 -13 -17 -4 -20 0 -20 31 l1 37 19 -24 c11 -13 20 -27
20 -31z"/>
<path d="M2175 1236 c-34 -15 -119 -110 -135 -151 -13 -35 -13 -79 2 -129 15
-51 109 -148 170 -176 81 -37 190 -21 250 37 23 22 25 29 17 52 -5 14 -12 32
-15 40 -3 11 -8 10 -19 -5 -8 -10 -15 -14 -15 -7 0 6 -5 24 -11 40 l-11 28
-14 -27 c-20 -38 -77 -70 -127 -70 -55 -1 -85 16 -103 57 -44 107 32 219 148
219 45 0 49 2 44 20 -3 12 -6 27 -6 34 0 6 -9 12 -20 12 -10 0 -24 9 -30 20
-13 24 -77 27 -125 6z"/>
<path d="M1821 1078 c-68 -22 -131 -46 -139 -55 -14 -13 -13 -23 11 -97 14
-44 40 -127 57 -183 26 -84 35 -103 51 -103 10 0 19 -3 19 -7 0 -5 4 -14 9
-21 6 -11 32 -6 127 24 65 20 122 39 126 43 3 3 4 19 1 34 -4 22 -9 26 -25 21
-14 -4 -21 0 -25 15 -7 26 -15 26 -98 0 -37 -11 -68 -19 -69 -17 -5 5 -26 71
-26 79 0 4 34 17 76 30 70 21 75 24 72 48 -2 18 -10 27 -25 29 -12 2 -25 12
-28 23 -8 23 -11 23 -65 4 -59 -21 -67 -19 -79 16 -6 18 -11 33 -11 34 0 1 43
15 95 30 51 15 96 33 98 39 6 14 -10 56 -20 55 -4 0 -64 -19 -132 -41z"/>
<path d="M1513 1033 c-13 -2 -23 -8 -23 -11 0 -4 18 -64 39 -133 22 -69 51
-164 66 -212 21 -69 30 -87 45 -87 10 0 22 -9 25 -20 7 -23 13 -24 48 -11 l24
10 -66 215 c-60 198 -68 216 -88 216 -16 0 -23 6 -23 20 0 20 -5 21 -47 13z"/>
<path d="M828 816 c-125 -34 -193 -160 -157 -291 13 -47 94 -132 161 -166 65
-35 158 -33 221 4 131 77 152 255 43 360 -86 84 -181 117 -268 93z m182 -121
c68 -62 35 -203 -56 -241 -84 -35 -155 -5 -169 70 -15 76 19 145 87 180 41 21
111 16 138 -9z"/>
<path d="M462 558 c-29 -94 -54 -173 -56 -176 -2 -2 -69 48 -148 111 -78 63
-144 113 -146 112 -2 -2 28 -102 65 -224 58 -189 70 -220 85 -215 13 4 21 -2
27 -19 8 -20 15 -23 35 -20 15 3 29 9 32 14 3 5 -11 58 -30 119 -27 88 -31
109 -18 98 9 -7 40 -31 67 -53 53 -44 110 -85 117 -85 3 0 15 38 29 85 13 46
26 81 30 77 4 -4 14 -29 22 -57 11 -40 19 -50 35 -49 14 0 23 -7 27 -23 6 -26
12 -27 48 -14 l25 10 -64 208 c-81 260 -74 244 -86 213 -10 -25 -10 -25 -24
14 -8 22 -16 41 -17 43 -2 1 -27 -75 -55 -169z"/>
</g>
</svg>
